# xmcd
#
# Track frame offsets:
# 150
# 6145
# 20268
# 39117
# 57182
# 75247
# 96823
#
# Disc length: 1526 seconds
#
# Revision: 0
# Processed by: cddbd v1.5.1PL0 Copyright (c) Steve Scherf et al.
# Submitted via: Audion 3.0.2 (http://www.panic.com/audion/)
#
DISCID=3b05f407
DTITLE=Puffy Ami Yumi - Songs From Hi Hi Puffy Ami Yumi Show
DYEAR=1900
DGENRE=
TTITLE0=Hi Hi Puffy Ami Yumi Theme
TTITLE1=Teen Titans Theme
TTITLE2=Boogie Woogie No. 5
TTITLE3=Joining A Fan Club
TTITLE4=Friends Forever
TTITLE5=Asia No Junshin
TTITLE6=Sunrise
EXTD=
EXTT0=
EXTT1=
EXTT2=
EXTT3=
EXTT4=
EXTT5=
EXTT6=
PLAYORDER=
